<svg xmlns="http://www.w3.org/2000/svg" viewBox="0 0 600 600"><defs><style>.cls-1{fill:#7bcaef;}.cls-2{fill:#3b6d89;}</style></defs><g id="Laag_2" data-name="Laag 2"><g id="Logo_beeldmerk_A" data-name="Logo beeldmerk A"><g id="zl-beeldmerk-a"><polygon id="Binnenkant" class="cls-1" points="400 200 400 0 200 0 200 200 0 400 200 400 200 600 400 600 400 400 600 200 400 200"/><g id="Buitenkant"><path class="cls-2" d="M200,200H80A80,80,0,0,1,0,120V80A80,80,0,0,1,80,0H200Z"/><path class="cls-2" d="M600,200H400V0H520a80,80,0,0,1,80,80Z"/><path class="cls-2" d="M200,600H80A80,80,0,0,1,0,520V400H200Z"/><path class="cls-2" d="M520,600H400V400H520a80,80,0,0,1,80,80v40A80,80,0,0,1,520,600Z"/></g></g></g></g></svg>